<svg class="w-4 h-4" viewBox="0 0 1024 1024" xmlns="http://www.w3.org/2000/svg"><path d="M176.73984 539.3792c113.8816-23.90784 98.39104-156.90752 94.97088-186.0352-5.60128-44.8128-59.53536-123.16928-132.76928-116.95872-92.19328 8.06144-105.66144 138.18112-105.66144 138.18112C20.78976 434.77504 63.13984 563.32544 176.73984 539.3792L176.73984 539.3792zM297.66656 770.74176c-3.32032 9.37984-10.75456 33.32608-4.32128 54.1312 12.70784 46.69696 58.39104 39.08352 58.39104 39.08352l64.01536 0 0-128.03328-64.01536 0C323.05408 744.30464 300.7744 761.43104 297.66656 770.74176L297.66656 770.74176zM388.15488 316.31104c62.92992 0 113.76128-70.77376 113.76128-158.18496 0-87.39072-50.8288-158.12608-113.76128-158.12608-62.80704 0-113.78688 70.73536-113.78688 158.12608C274.368 245.53728 325.3504 316.31104 388.15488 316.31104L388.15488 316.31104zM659.07968 326.77632c84.12416 10.65728 138.1504-77.00992 148.90752-143.45984 10.94144-66.35776-43.30752-143.46496-102.85056-156.71552-59.6608-13.38368-134.11072 80.02304-140.89728 140.86656C556.14208 241.88672 575.18336 316.21376 659.07968 326.77632L659.07968 326.77632zM865.12384 717.4784c0 0-130.08128-98.39104-206.0672-204.68992-102.94272-156.71552-249.19296-92.95872-298.07616-13.25824-48.68096 79.70304-124.608 130.08384-135.3984 143.46752-10.91328 13.12768-157.09696 90.2656-124.672 231.13472 32.42496 140.86656 154.80064 149.86752 154.80064 149.86752s75.63008-3.61984 173.09952-24.93952c97.46432-21.12 181.45792 5.25824 181.45792 5.25824s227.71456 74.5088 290.02752-68.95616C962.52928 791.86944 865.12384 717.4784 865.12384 717.4784L865.12384 717.4784zM479.76704 927.97184l-160.04864 0c-63.91808-1.50272-81.74848-52.08576-84.94848-59.34336-3.1744-7.3984-21.25824-41.67424-11.68128-99.93728 27.62496-87.3856 96.6656-96.76032 96.6656-96.76032l96.02816 0 0-96.0256 64.01792 0 0 352.06144L479.76704 927.97184 479.76704 927.97184zM735.84384 927.97184 575.7952 927.97184c-63.02464-2.69568-64.11776-60.4672-64.11776-60.4672l0.09984-195.60448 64.01792 0 0 160.0512c4.224 17.64096 32.00768 32.00512 32.00768 32.00512l64.02048 0 0-192.05376 64.02048 0L735.84384 927.97184 735.84384 927.97184zM992.39168 438.35904c0-31.77728-27.04896-127.51872-127.26784-127.51872-100.43904 0-113.85856 90.36032-113.85856 154.24768 0 60.94592 5.248 146.02496 130.01984 143.36768C1006.0544 605.80608 992.39168 470.34112 992.39168 438.35904L992.39168 438.35904z" fill="#2319dc"></path></svg>